<?xml version="1.0" encoding="utf-8"?>
<!-- Generator: Adobe Illustrator 26.2.1, SVG Export Plug-In . SVG Version: 6.00 Build 0)  -->
<svg version="1.1" id="Layer_1" xmlns="http://www.w3.org/2000/svg" xmlns:xlink="http://www.w3.org/1999/xlink" x="0px" y="0px"
	 viewBox="0 0 500 500" style="enable-background:new 0 0 500 500;" xml:space="preserve">
<style type="text/css">
	.st0{fill:none;stroke:#A2A1F8;stroke-width:2;stroke-linecap:round;stroke-linejoin:round;stroke-miterlimit:10;}
	.st1{fill:#A2A1F8;}
	.st2{fill:#7069F6;}
	.st3{fill:none;stroke:#31199C;stroke-width:2;stroke-linecap:round;stroke-linejoin:round;stroke-miterlimit:10;}
	.st4{display:none;}
	.st5{display:inline;}
	.st6{fill:#E8E7FD;}
	.st7{display:none;fill:#7069F6;}
	.st8{display:none;fill:none;stroke:#A2A1F8;stroke-width:2;stroke-linecap:round;stroke-linejoin:round;stroke-miterlimit:10;}
</style>
<g>
	<g>
		<g>
			<path class="st0" d="M69.84,147.72l-7.75-13.59c-4.87-8.55-14.52-12.4-23.29-9.19c-7.56,2.77-16.16,7.43-21.76,15.16
				c-9.23,12.74,0,23.85,52.79,18.51V147.72z"/>
			<path class="st0" d="M432.79,147.72l7.75-13.59c4.87-8.55,14.52-12.4,23.29-9.19c7.56,2.77,16.16,7.43,21.76,15.16
				c9.23,12.74,0,23.85-52.79,18.51V147.72z"/>
			<path class="st1" d="M88.87,157.29c6.98-21.92,14.3-41.02,21.87-57.01c5.78-12.12,15.87-19.55,26.99-19.84
				c0.86-0.01,1.74-0.04,2.66-0.09c36.65-1.1,74.04-1.66,110.92-1.66c36.88,0,74.27,0.56,111.13,1.67c0.79,0.04,1.64,0.07,2.47,0.08
				c11.12,0.29,21.2,7.71,26.98,19.87c5.51,11.6,13.27,30.08,21.86,56.98H88.87z"/>
			<path class="st1" d="M333.74,325.38l-7.47-26.48c-2.49-8.84-10.01-14.88-18.52-14.88h-56.43h-56.43
				c-8.51,0-16.03,6.04-18.52,14.88l-7.47,26.48"/>
			<path class="st2" d="M129.73,246.08L129.73,246.08c0-7.02-3.87-13.35-9.85-16.02c-12.41-5.55-35.14-13.96-59.92-14.52
				c-9.16-0.21-16.68,8.06-16.43,18.01c0.16,6.39,1.95,13.94,7.35,21.61c2.81,4,7.25,6.25,11.88,6.42l50.48,1.83
				C122.25,263.74,129.73,255.88,129.73,246.08z"/>
			<path class="st2" d="M372.91,246.08L372.91,246.08c0-7.02,3.87-13.35,9.85-16.02c12.41-5.55,35.14-13.96,59.92-14.52
				c9.16-0.21,16.68,8.06,16.43,18.01c-0.16,6.39-1.95,13.94-7.35,21.61c-2.81,4-7.25,6.25-11.88,6.42l-50.48,1.83
				C380.38,263.74,372.91,255.88,372.91,246.08z"/>
			<path class="st0" d="M100.87,316.04H47.44c0,0-4.3,40.69,26.71,39.03"/>
			<path class="st3" d="M129.73,246.08L129.73,246.08c0-7.02-3.87-13.35-9.85-16.02c-12.41-5.55-35.14-13.96-59.92-14.52
				c-9.16-0.21-16.68,8.06-16.43,18.01c0.16,6.39,1.95,13.94,7.35,21.61c2.81,4,7.25,6.25,11.88,6.42l50.48,1.83
				C122.25,263.74,129.73,255.88,129.73,246.08z"/>
			<path class="st3" d="M94.11,384.09L94.11,384.09c-17.04,0-33.93-3.5-49.77-10.32l-0.82-0.35"/>
			<path class="st3" d="M478.54,366.07v32.65c0,7.76-5.79,14.05-12.93,14.05h-44.15c-7.14,0-12.93-6.29-12.93-14.05V384.1H94.12
				v14.63c0,7.76-5.79,14.05-12.93,14.05H37.04c-7.14,0-12.93-6.29-12.93-14.05v-32.65c-6.73-40.44-7.25-102.08-7.02-132.37
				c0.09-11.55,4.16-22.6,11.38-31.07l37.71-44.02c11.46-35.09,22.55-58.9,31.15-74.37c8.57-15.32,23.73-24.82,40.24-25.12
				c0.71-0.01,1.45-0.03,2.23-0.05c74.33-1.9,148.71-1.9,223.05,0c0.78,0.02,1.53,0.04,2.24,0.05c16.51,0.31,31.67,9.81,40.21,25.12
				c8.63,15.47,19.69,39.29,31.18,74.37l37.69,44.02c7.25,8.47,11.32,19.52,11.41,31.07C485.76,263.99,485.27,325.63,478.54,366.07z
				"/>
			<path class="st0" d="M401.77,316.04h53.43c0,0,4.3,40.69-26.71,39.03"/>
			<path class="st3" d="M372.91,246.08L372.91,246.08c0-7.02,3.87-13.35,9.85-16.02c12.41-5.55,35.14-13.96,59.92-14.52
				c9.16-0.21,16.68,8.06,16.43,18.01c-0.16,6.39-1.95,13.94-7.35,21.61c-2.81,4-7.25,6.25-11.88,6.42l-50.48,1.83
				C380.38,263.74,372.91,255.88,372.91,246.08z"/>
			<path class="st3" d="M408.53,384.09L408.53,384.09c17.04,0,33.93-3.5,49.77-10.32l0.82-0.35"/>
			<line class="st3" x1="66.18" y1="158.61" x2="436.47" y2="158.61"/>
			<path class="st3" d="M333.74,325.38l-7.47-26.48c-2.49-8.84-10.01-14.88-18.52-14.88h-56.43h-56.43
				c-8.51,0-16.03,6.04-18.52,14.88l-7.47,26.48"/>
		</g>
		<g class="st4">
			<g class="st5">
				<path class="st3" d="M32.34-96.71c0,0-83.16,49.51-104.06,28.89C-96.2-91.97-50.69-142.56,6.11-175.48
					c134.78-78.12,258.23-27.22,258.23-27.22l41.48,3.89"/>
				<path class="st3" d="M146.15-163.75c0,0-20.62,7.44-49.96,10.8c-29.34,3.36-77.37,5.34-73.47,40.5s78.86,22.63,100.39,33.18
					c19,9.3,54.34,38.03,101.14,26.63c17.96-4.38,36.64-4.48,54.45,0.57c0.15,0.04,0.3,0.09,0.45,0.13"/>
				<path class="st3" d="M8.08-83.68c0,0-25.83,31.16-11.89,51.26c12.44,17.93,36.7,6.7,54.84-19.8
					c19.51-28.51,37.99-32.49,37.99-32.49"/>
				<path class="st1" d="M581.14-183.72c0,0-178.23-42.5-292.01-34.04c-12.57,0.93-23.58,9.42-28.36,22.09
					c-9.63,25.49-23.04,73.8-17.83,136.19c1.67,20.01,15.96,36.03,34.36,38.12c23.45,2.66,58.8,7.29,98.46,14.57
					C479.02,12.15,574.69-70.16,581.14-183.72L581.14-183.72z"/>
				<path class="st6" d="M315.26-16.56c-14.59-2.05-27.48-3.64-37.97-4.82c-18.4-2.09-32.67-18.09-34.36-38.11
					c-5.22-62.36,8.2-110.67,17.83-136.17c4.79-12.67,15.82-21.17,28.4-22.1c13.3-1,27.48-1.28,42.16-1.03
					C331.31-218.79,279.61-116.24,315.26-16.56z"/>
				<path class="st3" d="M581.14-183.72c0,0-178.21-42.49-291.99-34.05c-12.58,0.93-23.6,9.43-28.39,22.11
					c-9.63,25.49-23.03,73.8-17.82,136.17c1.67,20.01,15.96,36.03,34.36,38.12"/>
				<path class="st3" d="M331.29-218.77c0,0-51.7,102.52-16.03,202.22"/>
				<ellipse class="st3" cx="285.66" cy="-177.61" rx="6.5" ry="7.06"/>
			</g>
			<g class="st5">
				<path class="st3" d="M470.3,567.1c0,0,83.16-49.51,104.06-28.89c24.48,24.15-21.04,74.74-77.84,107.67
					C361.74,724,238.3,673.1,238.3,673.1l-41.47-3.89"/>
				<path class="st3" d="M356.49,634.15c0,0,20.62-7.44,49.96-10.8c29.34-3.36,77.37-5.34,73.47-40.5
					c-3.9-35.16-78.86-22.63-100.39-33.18c-19-9.3-54.34-38.03-101.14-26.63c-17.96,4.38-36.64,4.48-54.45-0.57
					c-0.15-0.04-0.3-0.09-0.45-0.13"/>
				<path class="st3" d="M494.56,554.07c0,0,25.83-31.16,11.89-51.26c-12.44-17.93-36.7-6.7-54.84,19.8
					c-19.51,28.51-37.99,32.49-37.99,32.49"/>
				<path class="st1" d="M-78.5,654.11c0,0,178.23,42.5,292.01,34.04c12.57-0.93,23.58-9.42,28.36-22.09
					c9.63-25.49,23.04-73.8,17.83-136.19c-1.67-20.01-15.96-36.03-34.36-38.12c-23.45-2.66-58.8-7.29-98.46-14.57
					C23.62,458.25-72.05,540.56-78.5,654.11L-78.5,654.11z"/>
				<path class="st6" d="M187.38,486.95c14.59,2.05,27.48,3.64,37.97,4.82c18.4,2.09,32.67,18.09,34.36,38.11
					c5.22,62.36-8.2,110.67-17.82,136.17c-4.79,12.67-15.82,21.17-28.4,22.1c-13.3,1-27.48,1.28-42.16,1.03
					C171.33,689.18,223.03,586.63,187.38,486.95z"/>
				<path class="st3" d="M-78.5,654.11c0,0,178.21,42.49,291.99,34.05c12.58-0.93,23.6-9.43,28.39-22.11
					c9.63-25.49,23.03-73.8,17.82-136.17c-1.67-20.01-15.96-36.03-34.36-38.12"/>
				<path class="st3" d="M171.35,689.17c0,0,51.7-102.52,16.03-202.22"/>
				<ellipse class="st3" cx="216.97" cy="648.01" rx="6.5" ry="7.06"/>
			</g>
		</g>
	</g>
	<g class="st4">
		<g class="st5">
			<path class="st0" d="M-50.11,490.52c0,0-153.55-254.97,0-510.65"/>
			<path class="st0" d="M-173.22,262.01c-3.63-55.74,1.06-122.87,27.45-190.04"/>
			<path class="st0" d="M-145.77,398.44c0,0-14.43-36.67-22.78-92.68"/>
		</g>
		<g class="st5">
			<path class="st0" d="M552.75,490.52c0,0,153.55-254.97,0-510.65"/>
			<path class="st0" d="M666.52,131.51c-4.35-19.62-10.27-39.59-18.11-59.54"/>
			<path class="st0" d="M673.82,174.8c14.33,122.68-25.41,223.64-25.41,223.64"/>
		</g>
	</g>
	<ellipse class="st7" cx="-113.72" cy="158.61" rx="20.31" ry="22.06"/>
	<ellipse class="st8" cx="-171.99" cy="284.02" rx="20.31" ry="22.06"/>
	<ellipse class="st8" cx="668.71" cy="153.44" rx="20.31" ry="22.06"/>
	<ellipse class="st7" cx="595.72" cy="384.09" rx="20.31" ry="22.06"/>
</g>
</svg>
