<svg width="192" height="27" viewBox="0 0 192 27" fill="none" xmlns="http://www.w3.org/2000/svg">
<path d="M10.016 26.36C8.504 26.36 7.1 26.156 5.804 25.748C4.508 25.34 3.416 24.728 2.528 23.912C1.64 23.096 1.004 22.076 0.62 20.852C0.26 19.628 0.212 18.2 0.476 16.568C0.668 15.536 0.872 14.504 1.088 13.472C1.328 12.44 1.568 11.396 1.808 10.34C2.6 7.1 4.028 4.64 6.092 2.96C8.156 1.28 10.94 0.439999 14.444 0.439999C15.956 0.439999 17.348 0.655999 18.62 1.088C19.916 1.496 21.008 2.12 21.896 2.96C22.808 3.8 23.444 4.832 23.804 6.056C24.188 7.28 24.236 8.708 23.948 10.34C23.78 11.396 23.576 12.44 23.336 13.472C23.12 14.504 22.892 15.536 22.652 16.568C21.836 19.856 20.396 22.316 18.332 23.948C16.268 25.556 13.496 26.36 10.016 26.36ZM10.484 21.176C11.78 21.176 12.92 20.792 13.904 20.024C14.888 19.256 15.584 18.032 15.992 16.352C16.256 15.296 16.484 14.3 16.676 13.364C16.892 12.428 17.084 11.456 17.252 10.448C17.564 8.768 17.42 7.544 16.82 6.776C16.22 6.008 15.272 5.624 13.976 5.624C12.68 5.624 11.54 6.008 10.556 6.776C9.596 7.544 8.912 8.768 8.504 10.448C8.24 11.456 8 12.428 7.784 13.364C7.592 14.3 7.4 15.296 7.208 16.352C6.92 18.032 7.064 19.256 7.64 20.024C8.216 20.792 9.164 21.176 10.484 21.176ZM27.7609 26C27.5209 26 27.3289 25.916 27.1849 25.748C27.0409 25.58 26.9929 25.364 27.0409 25.1L32.0089 1.7C32.0569 1.436 32.1889 1.22 32.4049 1.052C32.6209 0.883999 32.8489 0.799998 33.0889 0.799998H42.6649C44.1289 0.799998 45.4489 0.967998 46.6249 1.304C47.8249 1.64 48.8209 2.156 49.6129 2.852C50.4049 3.548 50.9569 4.424 51.2689 5.48C51.5809 6.512 51.5929 7.724 51.3049 9.116C50.7049 11.876 49.4809 13.916 47.6329 15.236C45.8089 16.556 43.3489 17.216 40.2529 17.216H35.3929L33.7369 25.1C33.6889 25.364 33.5569 25.58 33.3409 25.748C33.1489 25.916 32.9209 26 32.6569 26H27.7609ZM36.3289 12.248H40.4689C41.4529 12.248 42.3289 11.984 43.0969 11.456C43.8889 10.928 44.4049 10.124 44.6449 9.044C44.7649 8.42 44.7889 7.868 44.7169 7.388C44.6449 6.908 44.3929 6.524 43.9609 6.236C43.5529 5.948 42.9169 5.804 42.0529 5.804H37.7329L36.3289 12.248ZM57.957 26C57.693 26 57.489 25.916 57.345 25.748C57.201 25.58 57.153 25.364 57.201 25.1L61.197 6.452H54.789C54.549 6.452 54.357 6.368 54.213 6.2C54.069 6.008 54.021 5.792 54.069 5.552L54.897 1.7C54.945 1.436 55.065 1.22 55.257 1.052C55.473 0.883999 55.713 0.799998 55.977 0.799998H75.345C75.609 0.799998 75.801 0.883999 75.921 1.052C76.065 1.22 76.113 1.436 76.065 1.7L75.237 5.552C75.189 5.792 75.057 6.008 74.841 6.2C74.649 6.368 74.421 6.452 74.157 6.452H67.749L63.789 25.1C63.741 25.364 63.609 25.58 63.393 25.748C63.201 25.916 62.973 26 62.709 26H57.957ZM76.8193 26C76.5553 26 76.3513 25.916 76.2073 25.748C76.0633 25.58 76.0153 25.364 76.0633 25.1L81.0673 1.7C81.1153 1.436 81.2473 1.22 81.4633 1.052C81.6793 0.883999 81.9073 0.799998 82.1473 0.799998H87.0073C87.2473 0.799998 87.4393 0.883999 87.5833 1.052C87.7273 1.22 87.7753 1.436 87.7273 1.7L82.7233 25.1C82.6753 25.364 82.5433 25.58 82.3273 25.748C82.1353 25.916 81.9193 26 81.6793 26H76.8193ZM91.5872 26C91.3232 26 91.1192 25.916 90.9752 25.748C90.8312 25.58 90.7832 25.364 90.8312 25.1L95.7992 1.7C95.8472 1.436 95.9792 1.22 96.1952 1.052C96.4112 0.883999 96.6512 0.799998 96.9152 0.799998H100.803C101.187 0.799998 101.451 0.907998 101.595 1.124C101.763 1.316 101.871 1.472 101.919 1.592L105.807 12.968L114.591 1.592C114.663 1.472 114.807 1.316 115.023 1.124C115.263 0.907998 115.575 0.799998 115.959 0.799998H119.847C120.111 0.799998 120.315 0.883999 120.459 1.052C120.603 1.22 120.651 1.436 120.603 1.7L115.635 25.1C115.587 25.364 115.455 25.58 115.239 25.748C115.023 25.916 114.783 26 114.519 26H110.199C109.959 26 109.767 25.916 109.623 25.748C109.479 25.58 109.431 25.364 109.479 25.1L112.287 11.816L106.779 19.124C106.611 19.316 106.407 19.508 106.167 19.7C105.951 19.868 105.675 19.952 105.339 19.952H103.467C103.131 19.952 102.891 19.868 102.747 19.7C102.603 19.532 102.495 19.34 102.423 19.124L99.8672 11.492L96.9512 25.1C96.9032 25.364 96.7712 25.58 96.5552 25.748C96.3632 25.916 96.1472 26 95.9072 26H91.5872ZM123.344 26C123.08 26 122.876 25.916 122.732 25.748C122.588 25.58 122.54 25.364 122.588 25.1L127.592 1.7C127.64 1.436 127.772 1.22 127.988 1.052C128.204 0.883999 128.432 0.799998 128.672 0.799998H133.532C133.772 0.799998 133.964 0.883999 134.108 1.052C134.252 1.22 134.3 1.436 134.252 1.7L129.248 25.1C129.2 25.364 129.068 25.58 128.852 25.748C128.66 25.916 128.444 26 128.204 26H123.344ZM146.104 26.36C143.704 26.36 141.736 26.024 140.2 25.352C138.688 24.68 137.596 23.792 136.924 22.688C136.276 21.56 136.048 20.372 136.24 19.124C136.288 18.932 136.384 18.764 136.528 18.62C136.696 18.452 136.888 18.368 137.104 18.368H141.712C142.048 18.368 142.288 18.428 142.432 18.548C142.576 18.668 142.72 18.824 142.864 19.016C142.96 19.376 143.152 19.724 143.44 20.06C143.728 20.396 144.124 20.672 144.628 20.888C145.156 21.08 145.804 21.176 146.572 21.176C147.964 21.176 149.08 20.96 149.92 20.528C150.76 20.096 151.252 19.508 151.396 18.764C151.54 18.236 151.444 17.804 151.108 17.468C150.796 17.108 150.232 16.796 149.416 16.532C148.624 16.244 147.556 15.956 146.212 15.668C144.46 15.284 143.02 14.756 141.892 14.084C140.764 13.388 139.972 12.512 139.516 11.456C139.084 10.376 139.024 9.092 139.336 7.604C139.816 5.396 141.004 3.656 142.9 2.384C144.796 1.088 147.256 0.439999 150.28 0.439999C151.84 0.439999 153.22 0.655999 154.42 1.088C155.644 1.52 156.664 2.096 157.48 2.816C158.296 3.536 158.884 4.304 159.244 5.12C159.604 5.912 159.724 6.692 159.604 7.46C159.58 7.652 159.484 7.832 159.316 8C159.148 8.144 158.956 8.216 158.74 8.216H153.916C153.676 8.216 153.46 8.168 153.268 8.072C153.1 7.976 152.956 7.82 152.836 7.604C152.836 7.076 152.56 6.62 152.008 6.236C151.456 5.828 150.724 5.624 149.812 5.624C148.78 5.624 147.916 5.816 147.22 6.2C146.524 6.56 146.092 7.124 145.924 7.892C145.804 8.372 145.864 8.792 146.104 9.152C146.368 9.512 146.848 9.824 147.544 10.088C148.264 10.352 149.248 10.628 150.496 10.916C152.608 11.324 154.264 11.876 155.464 12.572C156.664 13.244 157.468 14.096 157.876 15.128C158.308 16.16 158.368 17.42 158.056 18.908C157.528 21.356 156.244 23.216 154.204 24.488C152.188 25.736 149.488 26.36 146.104 26.36ZM162.488 26C162.224 26 162.02 25.916 161.876 25.748C161.732 25.58 161.684 25.364 161.732 25.1L166.7 1.7C166.748 1.436 166.88 1.22 167.096 1.052C167.312 0.883999 167.552 0.799998 167.816 0.799998H171.704C172.088 0.799998 172.352 0.907998 172.496 1.124C172.664 1.316 172.772 1.472 172.82 1.592L176.708 12.968L185.492 1.592C185.564 1.472 185.708 1.316 185.924 1.124C186.164 0.907998 186.476 0.799998 186.86 0.799998H190.748C191.012 0.799998 191.216 0.883999 191.36 1.052C191.504 1.22 191.552 1.436 191.504 1.7L186.536 25.1C186.488 25.364 186.356 25.58 186.14 25.748C185.924 25.916 185.684 26 185.42 26H181.1C180.86 26 180.668 25.916 180.524 25.748C180.38 25.58 180.332 25.364 180.38 25.1L183.188 11.816L177.68 19.124C177.512 19.316 177.308 19.508 177.068 19.7C176.852 19.868 176.576 19.952 176.24 19.952H174.368C174.032 19.952 173.792 19.868 173.648 19.7C173.504 19.532 173.396 19.34 173.324 19.124L170.768 11.492L167.852 25.1C167.804 25.364 167.672 25.58 167.456 25.748C167.264 25.916 167.048 26 166.808 26H162.488Z" fill="#FF0420"/>
</svg>
